# xmcd CD database file
#
# Track frame offsets:
#	150
#	14157
#	58797
#	111027
#	156537
#	227212
#
# Disc length: 3565 seconds
#
# Revision: 0
# Processed by: cddbd v1.5.2PL0 Copyright (c) Steve Scherf et al.
# Submitted via: CDex 1.50
#
DISCID=510deb06
DTITLE=Junior Mance - At Town Hall Vol 1
DYEAR=1995
DGENRE=Jazz
TTITLE0=Annoucement
TTITLE1=Nadja
TTITLE2=Small Fry
TTITLE3=Harlem Lullaby
TTITLE4=I Cried For You
TTITLE5=Jubilation
EXTD=YEAR: 1995
EXTT0=
EXTT1=
EXTT2=
EXTT3=
EXTT4=
EXTT5=
PLAYORDER=
